<svg xmlns="http://www.w3.org/2000/svg" viewBox="0 0 1200 675" font-family="'Inter', system-ui, -apple-system, sans-serif">
  <!-- Backdrop -->
  <rect width="1200" height="675" fill="#09090b"/>

  <!-- Window -->
  <rect x="40" y="36" width="1120" height="604" rx="14" fill="#101013" stroke="#27272a" stroke-width="1.5"/>
  <rect x="40" y="36" width="1120" height="48" rx="14" fill="#141417"/>
  <rect x="40" y="60" width="1120" height="24" fill="#141417"/>
  <line x1="40" y1="84" x2="1160" y2="84" stroke="#27272a" stroke-width="1"/>
  <circle cx="72" cy="60" r="6" fill="#ff5f57"/>
  <circle cx="96" cy="60" r="6" fill="#febc2e"/>
  <circle cx="120" cy="60" r="6" fill="#28c840"/>
  <rect x="480" y="47" width="240" height="26" rx="13" fill="#18181b" stroke="#27272a"/>
  <text x="600" y="64" text-anchor="middle" font-family="Consolas, monospace" font-size="12" fill="#71717a">orgsync.app/dashboard</text>

  <!-- Sidebar -->
  <rect x="41" y="85" width="159" height="554" fill="#0c0c0e"/>
  <circle cx="70" cy="120" r="8" fill="#10b981"/>
  <text x="86" y="125" font-size="13" font-weight="600" fill="#e4e4e7">OrgSync</text>

  <!-- Nav: active item -->
  <rect x="41" y="152" width="3" height="30" rx="1.5" fill="#10b981"/>
  <rect x="56" y="160" width="14" height="14" rx="4" fill="#10b981" opacity="0.35"/>
  <rect x="80" y="163" width="104" height="8" rx="4" fill="#10b981" opacity="0.85"/>
  <!-- Nav items -->
  <rect x="56" y="204" width="14" height="14" rx="4" fill="#27272a"/><rect x="80" y="207" width="96" height="8" rx="4" fill="#27272a"/>
  <rect x="56" y="248" width="14" height="14" rx="4" fill="#27272a"/><rect x="80" y="251" width="88" height="8" rx="4" fill="#27272a"/>
  <rect x="56" y="292" width="14" height="14" rx="4" fill="#27272a"/><rect x="80" y="295" width="100" height="8" rx="4" fill="#27272a"/>
  <rect x="56" y="336" width="14" height="14" rx="4" fill="#27272a"/><rect x="80" y="339" width="80" height="8" rx="4" fill="#27272a"/>
  <rect x="56" y="380" width="14" height="14" rx="4" fill="#27272a"/><rect x="80" y="383" width="92" height="8" rx="4" fill="#27272a"/>

  <!-- User chip -->
  <circle cx="70" cy="600" r="10" fill="#27272a"/>
  <rect x="88" y="596" width="90" height="8" rx="4" fill="#27272a"/>

  <!-- Content header -->
  <text x="240" y="132" font-size="20" font-weight="700" fill="#fafafa">Employee Overview</text>
  <text x="240" y="154" font-size="12" fill="#71717a">Friday, September 16 — 2,481 active employees across 12 business units</text>

  <!-- Stat cards -->
  <g>
    <rect x="240" y="180" width="280" height="100" rx="10" fill="#141417" stroke="#27272a"/>
    <rect x="260" y="198" width="90" height="8" rx="4" fill="#3f3f46"/>
    <text x="260" y="244" font-size="24" font-weight="700" fill="#fafafa">2,481</text>
    <text x="260" y="264" font-size="11" fill="#34d399">+12.4% vs last month</text>
  </g>
  <g>
    <rect x="550" y="180" width="280" height="100" rx="10" fill="#141417" stroke="#27272a"/>
    <rect x="570" y="198" width="90" height="8" rx="4" fill="#3f3f46"/>
    <text x="570" y="244" font-size="24" font-weight="700" fill="#fafafa">97.2%</text>
    <text x="570" y="264" font-size="11" fill="#34d399">+0.8% attendance rate</text>
  </g>
  <g>
    <rect x="860" y="180" width="280" height="100" rx="10" fill="#141417" stroke="#27272a"/>
    <rect x="880" y="198" width="90" height="8" rx="4" fill="#3f3f46"/>
    <text x="880" y="244" font-size="24" font-weight="700" fill="#fafafa">Rp 4.2B</text>
    <text x="880" y="264" font-size="11" fill="#34d399">+6.1% payroll run</text>
  </g>

  <!-- Bar chart card -->
  <rect x="240" y="300" width="600" height="300" rx="10" fill="#141417" stroke="#27272a"/>
  <rect x="260" y="320" width="120" height="8" rx="4" fill="#3f3f46"/>
  <circle cx="704" cy="324" r="5" fill="#10b981"/>
  <rect x="716" y="320" width="56" height="8" rx="4" fill="#3f3f46"/>
  <g stroke="#232327" stroke-width="1">
    <line x1="260" y1="560" x2="820" y2="560"/>
    <line x1="260" y1="512" x2="820" y2="512"/>
    <line x1="260" y1="464" x2="820" y2="464"/>
    <line x1="260" y1="416" x2="820" y2="416"/>
    <line x1="260" y1="368" x2="820" y2="368"/>
  </g>
  <g fill="#10b981">
    <rect x="270" y="490" width="34" height="70" rx="4"/>
    <rect x="338" y="460" width="34" height="100" rx="4"/>
    <rect x="406" y="475" width="34" height="85" rx="4"/>
    <rect x="474" y="430" width="34" height="130" rx="4"/>
    <rect x="542" y="400" width="34" height="160" rx="4"/>
    <rect x="610" y="420" width="34" height="140" rx="4"/>
    <rect x="678" y="370" width="34" height="190" rx="4"/>
    <rect x="746" y="330" width="34" height="230" rx="4"/>
  </g>
  <g fill="#10b981" opacity="0.35">
    <rect x="270" y="490" width="34" height="70" rx="4" fill="none" stroke="#10b981" stroke-dasharray="3 4"/>
    <rect x="338" y="460" width="34" height="100" rx="4" fill="none" stroke="#10b981" stroke-dasharray="3 4"/>
  </g>

  <!-- Donut card -->
  <rect x="860" y="300" width="280" height="300" rx="10" fill="#141417" stroke="#27272a"/>
  <rect x="880" y="320" width="100" height="8" rx="4" fill="#3f3f46"/>
  <g transform="translate(0,0)">
    <circle cx="1000" cy="410" r="44" fill="none" stroke="#27272a" stroke-width="12"/>
    <circle cx="1000" cy="410" r="44" fill="none" stroke="#10b981" stroke-width="12" stroke-linecap="round"
            stroke-dasharray="199 77.5" transform="rotate(-90 1000 410)"/>
    <text x="1000" y="416" text-anchor="middle" font-size="16" font-weight="700" fill="#fafafa">72%</text>
  </g>
  <text x="1000" y="478" text-anchor="middle" font-size="12" fill="#71717a">Present today</text>
  <g>
    <circle cx="884" cy="506" r="5" fill="#10b981"/><rect x="898" y="502" width="150" height="8" rx="4" fill="#27272a"/>
    <circle cx="884" cy="534" r="5" fill="#fbbf24"/><rect x="898" y="530" width="120" height="8" rx="4" fill="#27272a"/>
    <circle cx="884" cy="562" r="5" fill="#52525b"/><rect x="898" y="558" width="136" height="8" rx="4" fill="#27272a"/>
  </g>
</svg>
